<svg id="Layer_1" xmlns="http://www.w3.org/2000/svg" viewBox="0 0 450 116.67">
  <defs>
    <style>
      .cls-1 {
        fill: #1b1d1f;
      }

      .cls-1, .cls-2 {
        stroke-width: 0px;
      }

      .cls-2 {
        fill: #cdf564;
      }
    </style>
  </defs>
  <g id="OUTLINE_LOGO_LIGHT_DARK_BACKGROUND-22">
    <g>
      <polygon class="cls-1" points="280.01 0 269.83 10.18 269.83 0 190 0 173.17 16.84 156.33 0 60 0 0 60 10.48 60 .48 70 40 70 3.33 106.67 13.81 106.67 3.81 116.67 156.81 116.67 173.65 99.83 190.48 116.67 270.31 116.67 270.31 106.5 280.48 116.67 386.73 116.67 450 53.33 444.77 48.09 449.52 43.33 406.23 0 280.01 0"></polygon>
      <polygon class="cls-2" points="404.16 5 282.08 5 264.83 22.25 264.83 5 192.07 5 173.17 23.91 154.26 5 62.07 5 12.07 55 62.07 55 15.4 101.67 154.26 101.67 173.17 82.76 192.07 101.67 264.83 101.67 264.83 84.43 282.07 101.67 384.18 101.67 442.45 43.33 404.16 5"></polygon>
      <polygon class="cls-1" points="284.84 11.67 258.17 38.34 258.17 11.67 194.83 11.67 173.17 33.34 151.5 11.67 111.5 11.67 143.17 43.34 133.17 23.34 155.67 50.84 123.17 83.34 113.17 73.34 93.17 73.34 128.17 38.34 101.5 11.67 64.83 11.67 28.17 48.34 68.17 48.34 83.17 33.34 88.17 38.34 31.5 95 151.5 95 173.17 73.34 194.83 95 234.83 95 203.17 63.34 213.17 83.34 190.67 55.84 223.2 23.31 223.2 73.34 244.83 95 258.17 95 258.17 68.34 284.83 95 324.83 95 278.17 48.34 288.17 48.34 324.84 11.67 284.84 11.67"></polygon>
      <path class="cls-1" d="M334.79,11.67l-41.63,41.67,41.63,41.67h46.62l51.62-51.67-31.64-31.67h-66.6ZM333.13,53.34l19.98-20h29.97l9.99,10-29.97,30h-9.99l-19.98-20Z"></path>
      <path class="cls-1" d="M430.67,0l-1.83,5.82h-.04l-1.84-5.82h-2.01v7.78h1.18V1.33h.04l2.14,6.45h1l2.12-6.45h.04v6.45h1.22V0h-2.01ZM423.85,0h-6.45v1.09h2.59v6.69h1.26V1.09h2.59V0Z"></path>
    </g>
  </g>
</svg>